<?xml version="1.0" standalone="no"?>
<!DOCTYPE svg PUBLIC "-//W3C//DTD SVG 20010904//EN"
 "http://www.w3.org/TR/2001/REC-SVG-20010904/DTD/svg10.dtd">
<svg version="1.0" xmlns="http://www.w3.org/2000/svg"
 width="512.000000pt" height="512.000000pt" viewBox="0 0 512.000000 512.000000"
 preserveAspectRatio="xMidYMid meet">
<metadata>
Created by potrace 1.16, written by Peter Selinger 2001-2019
</metadata>
<g transform="translate(0.000000,512.000000) scale(0.100000,-0.100000)"
fill="#000000" stroke="none">
<path d="M2485 4443 c-77 -36 -246 -116 -375 -177 l-235 -111 -27 28 c-17 17
-37 27 -55 27 -38 0 -339 -154 -423 -217 -36 -26 -78 -55 -94 -64 -30 -16 -55
-44 -46 -52 3 -2 101 -51 219 -108 l214 -104 -7 -140 c-6 -140 -22 -244 -70
-470 -14 -66 -31 -165 -37 -220 -8 -67 -18 -108 -30 -123 -10 -13 -23 -49 -29
-80 -6 -31 -20 -91 -30 -132 -23 -89 -44 -272 -35 -316 4 -26 1 -32 -20 -42
-40 -18 -68 -92 -69 -182 -1 -56 -8 -93 -28 -145 -15 -38 -43 -126 -63 -195
-73 -251 -113 -356 -165 -430 l-18 -25 79 -34 c43 -19 79 -39 79 -46 0 -16
-74 -164 -102 -204 l-25 -34 81 -29 c45 -15 87 -28 95 -28 17 0 32 18 77 98
38 67 56 74 64 26 7 -39 30 254 30 386 0 120 17 400 28 475 4 28 7 -137 7
-365 0 -411 0 -416 -23 -473 -13 -31 -30 -63 -38 -71 -29 -29 -13 -36 22 -10
63 49 84 118 93 316 l6 137 365 -190 c201 -105 470 -246 598 -315 l233 -125
232 152 c669 440 777 512 777 524 0 6 -9 20 -20 30 -18 16 -20 17 -14 2 5 -13
-45 -50 -238 -176 -133 -87 -355 -233 -492 -323 -137 -89 -253 -162 -257 -161
-5 2 -125 65 -266 142 -142 76 -400 211 -573 301 -173 89 -323 168 -333 174
-18 10 -19 23 -14 201 3 164 7 198 26 250 36 98 37 103 7 117 -25 11 -27 15
-24 67 3 54 4 56 45 79 l41 23 269 -127 c147 -70 369 -176 492 -235 123 -60
228 -109 234 -109 5 0 42 25 82 55 40 30 192 133 337 229 l265 174 198 -74
c109 -41 201 -77 204 -80 3 -3 -9 -19 -28 -34 -39 -33 -80 -59 -511 -320 -179
-108 -344 -208 -367 -223 l-42 -26 11 32 c6 17 15 38 21 44 5 7 86 56 181 109
94 53 212 120 261 149 50 28 116 66 148 84 31 18 57 35 57 37 0 6 -50 -21
-195 -106 -44 -25 -165 -93 -269 -150 -104 -58 -195 -115 -203 -127 -8 -12
-23 -63 -34 -115 -23 -105 -36 -421 -21 -498 6 -31 7 4 4 110 -5 155 7 296 31
368 11 33 35 50 347 239 184 112 385 234 445 270 61 37 113 67 118 65 4 -1 7
2 7 7 0 5 16 19 35 31 72 44 51 61 -189 150 -108 40 -196 77 -196 83 0 5 -8
16 -17 23 -15 10 -18 29 -18 111 0 128 25 185 97 223 l48 25 -2 85 -2 85 -3
-77 c-4 -73 -5 -78 -26 -78 -13 0 -29 6 -37 13 -12 10 -12 9 -1 -5 15 -20 6
-26 -89 -56 -58 -18 -100 -21 -400 -26 -184 -3 -378 -11 -431 -18 -179 -22
-309 21 -417 137 -102 109 -161 258 -183 465 -5 52 -9 204 -7 337 l3 242 174
-94 173 -93 -67 -7 c-136 -15 -227 11 -244 68 -7 26 -9 27 -10 9 -3 -81 117
-122 269 -92 25 4 47 7 49 5 1 -2 -4 -26 -13 -52 -57 -172 -23 -383 76 -467
65 -56 144 -69 252 -41 162 42 520 196 650 279 32 20 60 35 63 32 3 -2 -2 -29
-11 -59 -25 -88 -101 -191 -236 -322 -69 -66 -115 -113 -105 -104 11 9 66 53
122 98 115 91 190 178 231 263 l27 57 67 0 c73 1 120 -12 117 -31 -1 -7 0 -96
2 -198 l3 -185 6 205 c3 113 3 209 -1 213 -4 5 -46 12 -95 15 l-89 7 3 45 c3
35 9 49 30 65 80 59 79 56 86 231 4 87 9 184 12 214 l5 56 92 52 c245 139 392
230 392 242 0 9 -169 85 -440 199 -242 102 -510 216 -595 254 -86 37 -167 67
-180 66 -14 0 -88 -30 -165 -66z m273 3 c147 -67 591 -262 825 -361 114 -49
207 -92 207 -96 0 -4 -35 -27 -77 -51 -43 -25 -258 -148 -478 -275 -220 -126
-467 -267 -550 -313 l-149 -83 -136 69 c-372 190 -690 360 -690 370 0 6 36 45
79 87 120 117 212 150 344 123 l38 -7 -30 -34 c-63 -72 -50 -146 43 -244 34
-35 54 -62 46 -59 -91 35 -218 90 -319 139 -68 32 -126 57 -129 55 -6 -7 303
-156 428 -206 58 -23 167 -76 243 -117 l138 -74 117 71 c159 97 185 118 90 76
-42 -19 -95 -44 -117 -56 -82 -41 -85 -41 -138 -8 -26 17 -106 64 -178 105
-143 83 -178 110 -206 165 -27 53 -25 100 7 131 30 30 20 27 189 67 72 17 153
31 180 31 60 0 95 20 95 54 0 28 -42 55 -85 55 -30 0 -77 -43 -69 -63 4 -10
-11 -19 -53 -30 -124 -34 -190 -42 -264 -29 -157 27 -248 6 -351 -81 -33 -29
-66 -56 -72 -61 -8 -5 -43 5 -95 28 -46 20 -85 35 -88 33 -2 -3 13 -11 34 -20
21 -8 59 -25 84 -36 l47 -21 -30 -32 -30 -32 -164 83 c-90 46 -164 87 -164 91
0 4 24 29 53 57 61 57 370 223 416 223 25 0 61 -25 50 -34 -7 -6 -332 -153
-399 -181 -65 -27 -105 -53 -65 -42 40 10 295 127 555 252 500 242 675 323
698 324 12 1 66 -19 120 -43z m589 -958 l-8 -193 -37 -33 c-102 -93 -344 -224
-604 -326 -292 -116 -399 -110 -467 26 -50 99 -51 247 -4 354 l18 42 135 -74
c74 -41 142 -74 151 -74 15 0 283 151 649 366 96 57 175 103 175 104 0 0 -4
-87 -8 -192z m-1555 -231 c4 -330 5 -345 31 -439 67 -251 196 -384 446 -459
71 -21 86 -22 295 -16 260 8 597 24 678 33 l58 6 -16 -44 c-18 -51 -22 -127
-11 -184 l8 -41 -354 -201 c-203 -116 -365 -202 -379 -202 -14 0 -44 7 -67 15
-34 11 -511 226 -849 381 -67 30 -73 36 -66 56 18 57 24 102 30 218 4 70 13
136 20 151 7 14 18 56 25 92 12 65 12 68 -11 92 l-23 25 21 72 c57 200 89 499
76 720 l-6 118 45 -25 45 -26 4 -342z m-135 -99 c-3 -7 -5 -2 -5 12 0 14 2 19
5 13 2 -7 2 -19 0 -25z m-26 -151 c-12 -56 -26 -115 -31 -132 -9 -26 -9 -24
-5 15 9 72 50 254 53 236 2 -10 -6 -63 -17 -119z m-38 -320 c16 -11 16 -18 6
-67 -16 -77 -23 -88 -54 -83 -28 6 -31 21 -14 93 17 77 25 85 62 57z m-82
-360 c-7 -61 -14 -113 -17 -116 -9 -10 -3 151 8 200 18 78 22 41 9 -84z m39
-16 c-11 -88 -28 -156 -30 -121 -2 35 35 272 38 245 2 -16 -2 -72 -8 -124z
m-72 -222 c30 -10 30 -11 16 -44 -8 -19 -14 -60 -14 -91 l0 -57 -42 7 c-24 4
-47 11 -52 16 -14 14 -1 125 17 154 19 29 30 31 75 15z m-56 -240 c2 -7 -2
-62 -8 -123 -7 -61 -13 -185 -14 -276 -1 -220 -15 -382 -40 -454 -18 -54 -86
-186 -95 -186 -5 0 -99 40 -102 44 -2 2 17 41 42 88 45 84 68 142 107 268 16
52 22 107 27 275 7 194 10 216 36 293 26 78 39 96 47 71z m-123 -359 c-6 -173
-22 -268 -55 -332 -8 -15 -21 -28 -28 -28 -23 0 -86 30 -86 40 0 6 13 36 29
68 30 59 94 245 126 365 10 37 19 66 20 65 0 -2 -2 -82 -6 -178z"/>
<path d="M3331 2774 c0 -11 3 -14 6 -6 3 7 2 16 -1 19 -3 4 -6 -2 -5 -13z"/>
<path d="M3578 1854 c-38 -20 -36 -28 2 -9 17 9 30 18 30 20 0 7 -1 6 -32 -11z"/>
<path d="M3497 1806 c-48 -29 -61 -43 -22 -23 31 16 74 46 65 46 -3 0 -22 -10
-43 -23z"/>
<path d="M3651 1784 c0 -11 3 -14 6 -6 3 7 2 16 -1 19 -3 4 -6 -2 -5 -13z"/>
<path d="M3642 1575 c0 -16 2 -22 5 -12 2 9 2 23 0 30 -3 6 -5 -1 -5 -18z"/>
<path d="M3670 1454 c0 -6 7 -19 16 -30 14 -18 14 -18 3 6 -14 31 -19 36 -19
24z"/>
</g>
</svg>