<?xml version="1.0" standalone="no"?>
<!DOCTYPE svg PUBLIC "-//W3C//DTD SVG 20010904//EN"
 "http://www.w3.org/TR/2001/REC-SVG-20010904/DTD/svg10.dtd">
<svg version="1.0" xmlns="http://www.w3.org/2000/svg"
 width="512.000000pt" height="512.000000pt" viewBox="0 0 512.000000 512.000000"
 preserveAspectRatio="xMidYMid meet">
<metadata>
Created by potrace 1.16, written by Peter Selinger 2001-2019
</metadata>
<g transform="translate(0.000000,512.000000) scale(0.100000,-0.100000)"
fill="#000000" stroke="none">
<path d="M150 5113 c0 -5 43 -53 94 -108 l94 -100 35 30 c20 17 60 50 91 75
58 47 70 67 60 94 -5 14 -29 16 -190 16 -101 0 -184 -3 -184 -7z"/>
<path d="M925 5110 c4 -6 11 -8 16 -5 14 9 11 15 -7 15 -8 0 -12 -5 -9 -10z"/>
<path d="M875 4958 c-175 -193 -181 -202 -169 -233 13 -33 185 -192 216 -200
23 -6 36 4 111 82 123 128 237 261 248 290 22 58 1 134 -53 191 -31 31 -34 32
-118 32 l-87 0 -148 -162z"/>
<path d="M1310 5115 c0 -18 42 -85 53 -85 17 0 98 51 116 73 12 16 6 17 -78
17 -50 0 -91 -2 -91 -5z"/>
<path d="M1540 5065 c-30 -39 -40 -60 -35 -75 6 -20 64 -70 81 -70 5 0 51 45
103 100 l92 100 -99 0 -100 0 -42 -55z"/>
<path d="M1794 5075 c-61 -75 -18 -75 56 0 l44 45 -31 0 c-25 0 -39 -9 -69
-45z"/>
<path d="M1947 5055 c-69 -59 -95 -85 -84 -85 23 0 254 53 281 64 39 16 42 22
24 61 -10 23 -16 25 -78 25 l-67 0 -76 -65z"/>
<path d="M2230 5110 c0 -5 4 -10 9 -10 6 0 13 5 16 10 3 6 -1 10 -9 10 -9 0
-16 -4 -16 -10z"/>
<path d="M2326 5028 c-56 -96 -170 -384 -164 -415 7 -38 51 -25 162 49 60 40
114 80 120 90 8 13 2 25 -27 57 -61 67 -54 83 97 239 l70 72 -101 0 -102 0
-55 -92z"/>
<path d="M2567 5037 c-96 -117 -122 -156 -111 -166 5 -5 40 -21 78 -36 57 -23
70 -25 82 -14 11 12 6 26 -31 91 l-45 77 60 57 c33 31 60 61 60 66 0 24 -32
-2 -93 -75z"/>
<path d="M2775 5027 c-38 -80 -74 -194 -75 -235 0 -16 64 -47 82 -40 7 3 58
72 112 152 l99 146 -19 35 c-18 35 -19 35 -87 35 l-68 0 -44 -93z"/>
<path d="M3190 5116 c0 -9 40 -13 46 -5 3 5 -6 9 -20 9 -14 0 -26 -2 -26 -4z"/>
<path d="M3480 5110 c20 -5 39 -5 45 1 5 5 -8 9 -35 8 l-45 -1 35 -8z"/>
<path d="M3681 5098 c-51 -138 -73 -228 -56 -228 22 0 283 159 305 185 7 8 10
25 6 40 -6 25 -7 25 -126 25 -116 0 -121 -1 -129 -22z"/>
<path d="M4028 5113 c12 -2 32 -2 45 0 12 2 2 4 -23 4 -25 0 -35 -2 -22 -4z"/>
<path d="M4528 5073 c71 -86 87 -126 88 -228 1 -116 -1 -111 34 -125 34 -14
135 -7 156 11 19 15 27 90 16 132 -6 20 -43 86 -82 147 l-72 110 -90 0 -90 0
40 -47z"/>
<path d="M4735 5093 c31 -47 102 -137 127 -161 l25 -22 91 87 c51 47 92 95 92
105 0 17 -12 18 -176 18 l-176 0 17 -27z"/>
<path d="M0 4972 l0 -128 29 -17 c34 -20 93 -89 140 -164 18 -29 40 -53 47
-53 18 0 113 47 136 68 10 8 18 24 18 34 0 25 -84 147 -157 228 -51 56 -184
160 -205 160 -4 0 -8 -58 -8 -128z"/>
<path d="M687 5025 c-151 -96 -215 -143 -255 -189 l-32 -37 20 -39 c15 -29 20
-59 20 -113 0 -81 11 -101 52 -95 17 2 38 32 90 122 46 81 90 142 136 190 92
96 122 138 122 170 0 29 -16 66 -28 66 -4 0 -60 -34 -125 -75z"/>
<path d="M2991 4943 c-147 -197 -151 -205 -97 -205 33 0 257 106 269 128 10
17 47 143 47 159 0 12 -41 38 -83 54 -26 10 -30 6 -136 -136z"/>
<path d="M4201 5003 c-87 -81 -92 -87 -71 -95 13 -5 38 -16 56 -24 l34 -16 80
72 c44 40 80 76 80 79 0 11 -65 71 -76 71 -6 0 -52 -39 -103 -87z"/>
<path d="M3315 5047 c-18 -40 -75 -267 -75 -300 0 -13 8 -31 18 -39 23 -21
158 -98 170 -98 20 0 111 353 99 384 -3 7 -25 20 -49 29 -24 8 -67 24 -96 36
l-52 21 -15 -33z"/>
<path d="M4439 5051 l23 -18 -31 -36 -32 -35 63 -36 c35 -20 67 -31 71 -27 14
14 -2 87 -24 115 -17 22 -72 56 -88 56 -3 0 5 -9 18 -19z"/>
<path d="M2641 5031 l-34 -28 26 -43 26 -44 6 30 c4 16 11 45 16 64 16 61 11
63 -40 21z"/>
<path d="M3895 4954 c-258 -144 -262 -147 -232 -188 12 -16 21 -13 127 44 234
126 330 184 330 200 0 20 -20 40 -39 40 -9 -1 -92 -44 -186 -96z"/>
<path d="M5053 4989 c-47 -33 -52 -52 -32 -122 7 -27 18 -41 37 -48 15 -6 35
-18 44 -26 17 -15 18 -10 18 105 0 91 -3 122 -12 122 -7 -1 -32 -14 -55 -31z"/>
<path d="M2075 4952 c-88 -21 -91 -24 -100 -69 -3 -20 -26 -103 -51 -183 -24
-81 -44 -153 -44 -160 0 -16 32 -8 128 32 40 18 80 41 87 52 14 21 86 284 89
321 1 26 -21 28 -109 7z"/>
<path d="M1822 4888 l-62 -21 -16 -56 c-8 -31 -29 -99 -45 -153 -16 -53 -29
-100 -29 -106 0 -5 28 -28 63 -51 55 -36 63 -39 74 -25 6 9 33 102 58 208 25
105 48 199 51 209 7 22 -13 21 -94 -5z"/>
<path d="M4350 4898 c0 -7 22 -71 48 -143 27 -71 52 -142 55 -157 8 -29 5 -28
113 -12 28 4 74 49 74 71 0 20 -258 253 -280 253 -6 0 -10 -6 -10 -12z"/>
<path d="M1438 4875 c27 -12 114 -40 215 -71 20 -6 22 5 5 29 -9 11 -49 23
-123 37 -130 23 -141 24 -97 5z"/>
<path d="M4251 4825 l-52 -55 24 -32 c13 -18 35 -53 50 -78 40 -71 50 -81 90
-90 29 -6 40 -5 43 5 6 14 -83 292 -96 300 -4 3 -31 -20 -59 -50z"/>
<path d="M3884 4803 c-49 -30 -93 -59 -97 -63 -5 -4 29 -32 75 -63 82 -54 166
-135 361 -349 54 -60 103 -108 108 -108 5 0 9 8 9 17 0 10 16 44 36 76 35 57
36 58 18 85 -29 44 -385 439 -409 454 -7 4 -51 -17 -101 -49z"/>
<path d="M1305 4820 c-16 -16 -27 -31 -24 -33 2 -2 39 -28 82 -56 74 -50 239
-117 257 -106 9 6 40 92 40 111 0 11 -286 114 -316 114 -5 0 -23 -13 -39 -30z"/>
<path d="M4867 4763 c-16 -30 -26 -58 -23 -60 3 -3 21 6 41 21 37 28 43 51 23
78 -11 14 -17 9 -41 -39z"/>
<path d="M4970 4790 c0 -5 5 -10 10 -10 6 0 10 5 10 10 0 6 -4 10 -10 10 -5 0
-10 -4 -10 -10z"/>
<path d="M3596 4781 c-4 -7 -5 -15 -2 -18 9 -9 19 4 14 18 -4 11 -6 11 -12 0z"/>
<path d="M5060 4774 c1 -16 29 -60 29 -44 0 8 -6 24 -14 34 -8 11 -15 16 -15
10z"/>
<path d="M1212 4720 c-16 -27 -8 -40 26 -40 16 0 39 -12 59 -32 30 -29 35 -30
60 -19 26 12 27 14 9 25 -10 6 -45 28 -78 49 -32 20 -60 37 -61 37 -1 0 -8 -9
-15 -20z"/>
<path d="M2541 4729 c-28 -11 -188 -131 -273 -206 -109 -95 -248 -243 -248
-264 0 -54 62 -119 114 -119 43 1 61 18 161 158 105 148 131 176 233 243 91
61 102 73 102 114 0 57 -41 91 -89 74z"/>
<path d="M2674 4718 c-9 -15 21 -36 71 -49 70 -18 393 -208 530 -311 69 -52
71 -55 111 -156 22 -57 44 -104 49 -105 4 -1 13 6 19 16 9 14 7 20 -8 29 -29
16 -66 113 -80 207 l-12 85 -109 64 c-165 96 -274 149 -335 162 -30 6 -92 25
-138 41 -96 34 -89 32 -98 17z"/>
<path d="M3525 4649 c-36 -34 -65 -67 -65 -74 0 -12 46 -46 97 -74 21 -11 24
-8 53 55 16 37 30 75 30 85 0 28 -22 69 -36 69 -7 0 -43 -28 -79 -61z"/>
<path d="M37 4669 c-29 -24 -37 -38 -37 -64 0 -30 4 -34 54 -55 60 -24 76 -21
76 15 0 22 -44 135 -52 135 -2 0 -20 -14 -41 -31z"/>
<path d="M3115 4680 c-16 -4 -48 -11 -69 -15 l-39 -7 84 -45 c46 -25 121 -67
165 -94 45 -27 86 -49 91 -49 10 0 33 43 33 60 0 5 -35 33 -77 61 -43 29 -91
63 -106 76 -31 25 -36 26 -82 13z"/>
<path d="M4963 4678 c-6 -7 -27 -64 -49 -126 -33 -95 -37 -114 -24 -122 14 -9
125 -36 192 -47 l38 -6 0 87 c0 96 -16 133 -82 195 -35 33 -59 39 -75 19z"/>
<path d="M3768 4663 c-23 -27 -98 -140 -105 -159 -6 -15 5 -16 123 -9 71 4
149 10 174 14 l45 7 -50 48 c-54 52 -143 116 -161 116 -6 0 -18 -8 -26 -17z"/>
<path d="M656 4643 c-3 -4 -6 -16 -6 -28 0 -17 8 -24 31 -29 41 -8 49 -8 49 2
0 11 -67 62 -74 55z"/>
<path d="M4699 4593 c-73 -77 -92 -110 -134 -235 -47 -142 -47 -151 11 -166
35 -10 50 -10 60 -1 18 15 93 121 127 180 30 52 97 214 97 234 0 11 -77 45
-100 45 -4 0 -31 -26 -61 -57z"/>
<path d="M1178 4593 c-11 -13 -22 -78 -37 -213 -29 -270 -34 -243 50 -275 39
-15 74 -23 78 -19 5 5 16 86 25 179 9 94 19 186 22 206 4 27 1 40 -12 50 -9 8
-34 31 -54 52 -42 42 -51 44 -72 20z"/>
<path d="M1387 4592 c-10 -10 -17 -21 -17 -25 0 -3 40 -27 90 -53 49 -26 120
-71 157 -101 37 -29 72 -53 78 -53 13 0 65 72 65 89 0 13 -113 84 -200 125
-85 41 -147 47 -173 18z"/>
<path d="M2665 4580 c-9 -14 -46 -269 -43 -292 2 -17 15 -26 61 -39 32 -9 60
-13 63 -8 7 13 26 253 22 291 -3 29 -8 33 -51 44 -26 7 -49 8 -52 4z"/>
<path d="M271 4556 c-20 -11 -21 -14 -6 -19 32 -13 57 -8 53 10 -4 22 -18 25
-47 9z"/>
<path d="M2000 4507 c-109 -63 -182 -112 -204 -136 -19 -21 -19 -22 1 -49 29
-39 56 -39 113 3 27 20 53 34 58 32 4 -3 46 30 92 73 73 68 83 81 74 97 -19
31 -55 26 -134 -20z"/>
<path d="M2519 4491 c-75 -55 -90 -75 -146 -186 -49 -96 -85 -261 -62 -276 58
-38 141 -79 149 -74 5 3 28 37 50 75 39 66 40 72 40 158 0 49 8 132 19 183 29
147 32 169 24 169 -4 0 -38 -22 -74 -49z"/>
<path d="M1037 4502 c-20 -16 -66 -45 -102 -63 -75 -39 -79 -51 -40 -132 28
-61 71 -105 104 -109 22 -3 24 3 52 137 16 77 28 153 27 168 l-3 29 -38 -30z"/>
<path d="M4476 4487 c-40 -38 -42 -49 -22 -98 15 -38 14 -47 -17 -106 l-22
-43 23 -22 c14 -14 25 -19 31 -13 21 23 84 252 79 287 -5 35 -32 33 -72 -5z"/>
<path d="M610 4490 c35 -16 248 -26 235 -12 -6 6 -66 14 -135 17 -95 4 -119 3
-100 -5z"/>
<path d="M2837 4441 c-4 -32 -9 -102 -13 -155 l-7 -96 24 0 c13 0 34 3 46 6
23 6 23 7 17 143 -7 138 -13 161 -44 161 -14 0 -18 -12 -23 -59z"/>
<path d="M3419 4479 c-14 -27 -6 -156 14 -234 12 -45 16 -50 48 -56 18 -4 36
-5 38 -3 3 2 -5 57 -17 122 -12 64 -23 128 -24 141 -2 13 -13 30 -25 38 -20
13 -23 12 -34 -8z"/>
<path d="M1366 4458 c-3 -18 -14 -100 -26 -183 -11 -82 -23 -166 -26 -186 -6
-36 -6 -36 50 -59 31 -12 59 -21 61 -19 2 3 26 79 54 170 28 91 53 172 56 181
6 15 -68 78 -132 112 l-32 16 -5 -32z"/>
<path d="M192 4464 c-12 -8 -22 -21 -22 -29 0 -27 222 -145 273 -145 14 0 69
21 123 46 138 64 144 66 137 48 -5 -14 -3 -14 16 -3 24 16 28 29 7 29 -51 0
-241 25 -346 46 -147 28 -159 29 -188 8z"/>
<path d="M87 4452 c-10 -10 -17 -24 -17 -30 0 -11 58 -47 65 -40 6 6 -17 88
-25 88 -4 0 -14 -8 -23 -18z"/>
<path d="M3016 4433 c-10 -33 -56 -265 -56 -285 0 -10 8 -21 18 -25 17 -6 127
-50 148 -59 12 -5 101 169 110 216 6 26 -1 33 -97 99 -56 39 -106 71 -110 71
-4 0 -10 -8 -13 -17z"/>
<path d="M3770 4426 l-155 -11 -3 -115 c-1 -63 1 -120 5 -126 10 -15 322 -116
334 -109 10 7 13 333 3 359 -3 9 -11 15 -18 14 -6 0 -81 -6 -166 -12z"/>
<path d="M3520 4418 c0 -20 20 -179 26 -210 4 -20 12 -28 26 -28 20 0 20 4 13
118 -4 64 -8 118 -9 119 0 1 -13 4 -29 8 -20 5 -27 3 -27 -7z"/>
<path d="M3999 4403 c-7 -49 37 -331 56 -359 22 -33 183 -140 194 -128 5 5 14
27 21 49 7 22 25 57 41 77 16 20 29 40 29 45 0 4 -69 79 -153 166 -134 137
-184 177 -188 150z"/>
<path d="M762 4333 c-10 -4 -10 -8 -1 -19 16 -19 41 -18 37 3 -3 18 -16 24
-36 16z"/>
<path d="M224 4303 c9 -18 21 -33 26 -33 17 0 11 16 -16 41 l-27 24 17 -32z"/>
<path d="M4769 4261 c-70 -73 -90 -112 -72 -140 8 -13 29 -16 94 -16 72 -1 92
-5 139 -29 l55 -29 20 28 c11 16 41 54 68 86 36 44 47 66 47 93 0 32 -3 35
-47 51 -27 9 -90 19 -142 22 l-93 6 -69 -72z"/>
<path d="M63 4290 l-63 -29 0 -78 c0 -77 1 -78 34 -105 19 -15 39 -29 44 -30
6 -2 35 30 65 69 l54 73 -25 65 c-14 36 -31 65 -36 65 -6 -1 -39 -14 -73 -30z"/>
<path d="M1657 4276 l-26 -33 39 -32 c21 -17 43 -31 48 -31 5 0 14 17 20 37
11 35 9 40 -15 65 -15 15 -30 28 -34 28 -4 0 -18 -15 -32 -34z"/>
<path d="M515 4242 c-114 -65 -183 -113 -378 -260 l-137 -104 0 -100 0 -99 33
28 c147 124 230 191 342 277 280 214 305 236 305 265 0 32 -16 51 -45 51 -11
0 -65 -26 -120 -58z"/>
<path d="M1915 4248 c-71 -36 -95 -55 -95 -78 0 -9 30 -40 66 -69 63 -51 66
-52 85 -35 12 10 41 19 76 22 l56 5 -47 41 c-35 30 -52 55 -64 92 l-17 52 -60
-30z"/>
<path d="M760 4192 c-64 -43 -119 -110 -239 -287 -105 -155 -121 -185 -121
-223 0 -39 14 -43 91 -26 35 7 96 14 134 14 39 0 81 3 94 7 21 5 23 10 18 56
-7 78 7 110 73 169 44 38 72 75 103 133 23 44 42 83 42 86 0 6 -98 81 -130
101 -6 4 -35 -10 -65 -30z"/>
<path d="M3272 4182 l-21 -38 43 -50 44 -49 -13 65 c-8 36 -18 75 -22 88 -8
22 -10 22 -31 -16z"/>
<path d="M1564 4141 c-15 -23 -24 -44 -21 -47 6 -6 87 37 87 47 0 3 -9 14 -19
23 -19 17 -21 16 -47 -23z"/>
<path d="M2251 4140 c-23 -50 -25 -66 -12 -74 11 -7 45 88 38 107 -3 6 -14 -8
-26 -33z"/>
<path d="M2630 4125 c0 -33 22 -41 55 -19 l27 17 -24 13 c-38 21 -58 17 -58
-11z"/>
<path d="M1609 4028 c-139 -111 -171 -139 -277 -240 -71 -68 -81 -82 -72 -99
6 -10 14 -19 19 -19 5 0 44 23 87 51 99 65 126 75 162 60 16 -7 72 -59 126
-116 53 -58 103 -105 110 -105 21 0 36 23 86 138 25 59 59 126 73 147 46 67
38 93 -45 167 -92 81 -128 108 -143 108 -6 0 -63 -41 -126 -92z"/>
<path d="M1000 4024 c-29 -37 -83 -97 -121 -135 -66 -66 -69 -71 -69 -116 0
-60 43 -149 85 -175 41 -24 118 -24 159 1 17 11 96 88 175 171 113 119 141
154 130 161 -8 6 -80 43 -161 84 l-147 74 -51 -65z"/>
<path d="M3537 4059 c-32 -16 -60 -36 -63 -44 -4 -8 14 -72 39 -142 59 -165
58 -163 49 -198 -14 -53 -6 -65 46 -65 50 0 144 30 150 48 6 18 -77 322 -103
380 -28 61 -37 63 -118 21z"/>
<path d="M4400 4059 c-19 -44 -5 -59 65 -77 55 -14 59 -13 72 4 26 35 16 53
-43 79 -72 32 -79 31 -94 -6z"/>
<path d="M3185 4058 c-15 -22 -14 -24 16 -50 41 -34 90 -58 120 -58 20 0 15 9
-41 65 -35 36 -68 65 -72 65 -4 0 -14 -10 -23 -22z"/>
<path d="M2061 4061 c-59 -7 -84 -28 -63 -53 22 -27 104 -60 166 -68 71 -8 86
-5 86 20 0 21 -100 111 -121 108 -8 -1 -38 -4 -68 -7z"/>
<path d="M5080 4035 c-28 -29 -32 -39 -24 -53 6 -9 23 -18 38 -20 25 -3 26 -2
26 52 0 31 -1 56 -3 56 -2 0 -18 -16 -37 -35z"/>
<path d="M2665 4019 c-92 -74 -103 -105 -64 -180 18 -36 22 -39 37 -27 9 7 48
39 87 71 38 33 101 76 139 97 68 38 69 39 40 45 -16 3 -57 13 -91 21 -87 20
-92 19 -148 -27z"/>
<path d="M3760 4006 c0 -51 18 -74 88 -118 34 -21 34 -21 60 -1 15 11 32 31
39 44 17 34 -13 63 -96 90 -36 12 -72 24 -78 27 -9 3 -13 -9 -13 -42z"/>
<path d="M2997 4003 c-14 -25 -157 -490 -157 -511 0 -6 26 -32 57 -57 45 -35
60 -42 69 -32 7 6 49 102 94 212 71 173 81 205 76 240 -18 120 -17 116 -50
130 -46 18 -84 26 -89 18z"/>
<path d="M4660 3965 c36 -37 44 -36 54 8 6 27 6 27 -41 27 l-47 0 34 -35z"/>
<path d="M4795 3927 c-27 -34 -51 -64 -53 -68 -3 -7 63 -49 78 -49 12 0 80
114 80 133 0 14 -36 48 -50 46 -3 0 -27 -28 -55 -62z"/>
<path d="M2855 3938 c-68 -42 -195 -150 -195 -165 0 -6 10 -15 21 -18 34 -11
147 5 168 23 11 9 29 49 41 87 11 39 23 78 26 88 7 24 -3 21 -61 -15z"/>
<path d="M2290 3938 c0 -36 -40 -53 -132 -58 -122 -7 -124 -11 -68 -133 64
-140 53 -132 146 -103 44 14 87 31 96 38 9 7 30 53 46 101 l29 88 -31 23 c-66
49 -86 59 -86 44z"/>
<path d="M4001 3881 c-33 -38 -61 -73 -61 -77 0 -14 114 -124 128 -124 16 0
137 87 167 120 15 16 17 25 9 38 -10 15 -161 112 -175 112 -3 0 -34 -31 -68
-69z"/>
<path d="M4315 3917 c-17 -87 13 -107 64 -43 36 45 30 61 -26 72 -30 6 -32 4
-38 -29z"/>
<path d="M3386 3923 c-6 -16 -1 -22 37 -44 27 -15 29 -7 7 29 -22 36 -35 40
-44 15z"/>
<path d="M4471 3878 c-39 -34 -71 -67 -71 -73 0 -13 128 -105 146 -105 15 0
114 157 114 181 0 26 -48 59 -86 59 -26 0 -47 -13 -103 -62z"/>
<path d="M3180 3905 c0 -17 24 -85 30 -85 12 0 72 68 63 73 -15 9 -93 19 -93
12z"/>
<path d="M322 3844 l-63 -57 27 -28 c15 -16 33 -29 38 -29 15 1 99 147 91 160
-12 19 -30 10 -93 -46z"/>
<path d="M5005 3882 c-40 -25 -109 -102 -219 -247 -113 -148 -110 -143 -108
-182 2 -18 -5 -45 -15 -60 -10 -14 -23 -43 -28 -62 l-11 -36 -62 0 c-58 0 -64
-2 -82 -29 -10 -17 -24 -53 -31 -80 -6 -28 -20 -67 -29 -86 -31 -63 -33 -78
-10 -85 31 -10 118 51 215 149 44 45 143 164 219 266 77 102 170 222 208 266
68 81 68 82 68 143 l0 61 -42 0 c-24 0 -56 -8 -73 -18z"/>
<path d="M3294 3834 c-103 -125 -106 -144 -33 -167 28 -9 80 -22 116 -29 76
-14 83 -9 83 62 0 42 -5 51 -63 115 l-63 68 -40 -49z"/>
<path d="M3750 3850 c0 -22 63 -131 73 -127 6 2 20 15 30 30 16 20 18 29 9 40
-19 22 -112 70 -112 57z"/>
<path d="M2446 3814 c-3 -9 -6 -34 -6 -56 0 -38 2 -40 25 -34 13 3 36 11 51
16 l27 11 -38 39 c-43 44 -50 47 -59 24z"/>
<path d="M4672 3818 c-6 -7 -30 -62 -55 -123 -25 -60 -63 -152 -86 -204 -22
-52 -41 -103 -41 -112 0 -21 31 -44 71 -54 29 -7 64 18 55 40 -3 8 40 101 95
209 l99 196 -48 30 c-51 32 -74 37 -90 18z"/>
<path d="M1916 3770 c-17 -42 -16 -42 9 -76 53 -70 89 -78 121 -28 13 18 8 26
-50 83 l-63 63 -17 -42z"/>
<path d="M4259 3706 c-53 -36 -99 -72 -103 -81 -11 -31 17 -69 73 -97 30 -16
63 -28 72 -28 12 0 37 28 67 73 81 120 80 113 36 158 -21 21 -41 39 -44 39 -3
0 -48 -29 -101 -64z"/>
<path d="M167 3732 c-37 -39 -34 -47 8 -20 19 13 35 29 35 36 0 19 -14 14 -43
-16z"/>
<path d="M3886 3723 c-8 -16 -31 -44 -51 -65 -42 -41 -40 -50 18 -106 l35 -34
68 58 c38 31 71 59 74 62 6 5 -108 112 -120 112 -5 0 -16 -12 -24 -27z"/>
<path d="M1470 3722 c-40 -13 -68 -70 -42 -86 10 -6 92 51 92 65 0 13 -33 27
-50 21z"/>
<path d="M2670 3683 c-50 -6 -55 -16 -36 -67 18 -47 27 -53 122 -72 30 -6 31
-4 54 58 12 34 25 69 27 76 5 12 -82 15 -167 5z"/>
<path d="M118 3607 l-118 -62 0 -47 c0 -27 2 -48 5 -48 13 0 276 124 281 132
8 13 -26 88 -40 88 -6 0 -64 -28 -128 -63z"/>
<path d="M2505 3663 c-11 -2 -86 -22 -167 -45 -141 -38 -167 -41 -225 -23 -13
4 -23 3 -23 -1 0 -5 32 -22 71 -38 39 -15 82 -39 97 -51 26 -23 27 -27 30
-147 2 -67 5 -128 7 -135 3 -9 19 -5 57 12 29 13 107 34 173 45 66 12 121 23
121 23 1 1 -16 63 -37 137 -22 74 -45 155 -52 179 -13 46 -19 51 -52 44z"/>
<path d="M1125 3600 c-68 -69 -102 -83 -187 -78 -59 3 -62 2 -69 -24 -6 -22
-3 -27 15 -32 43 -12 78 -5 139 24 96 47 40 10 -83 -56 -106 -56 -150 -86
-150 -102 0 -5 6 -16 13 -26 13 -18 23 -12 153 75 76 52 163 109 192 126 l52
32 -6 58 c-4 32 -8 59 -8 60 -1 1 -29 -24 -61 -57z"/>
<path d="M1874 3646 c-6 -17 27 -135 50 -175 14 -25 14 -24 46 38 17 35 28 67
23 70 -17 15 -89 68 -101 75 -7 4 -15 1 -18 -8z"/>
<path d="M4482 3623 c-55 -79 -98 -200 -51 -143 21 25 62 100 79 146 13 33 -4
31 -28 -3z"/>
<path d="M1497 3596 c-43 -24 -83 -48 -88 -53 -6 -6 21 -48 77 -117 86 -105
88 -107 123 -102 20 3 64 8 99 12 34 3 64 9 67 14 9 14 -175 291 -193 289 -4
0 -42 -20 -85 -43z"/>
<path d="M3127 3578 c-49 -111 -69 -176 -60 -192 7 -14 25 -6 115 49 59 35
133 74 165 86 32 12 66 28 76 35 18 12 18 12 0 18 -10 3 -67 14 -128 26 -60
11 -118 23 -127 26 -14 4 -23 -7 -41 -48z"/>
<path d="M768 3598 c12 -12 24 -19 28 -15 10 10 -16 37 -34 37 -13 0 -12 -4 6
-22z"/>
<path d="M623 3578 c12 -30 18 -33 60 -36 26 -2 47 0 47 3 0 4 -8 20 -17 36
-15 25 -23 29 -60 29 l-43 0 13 -32z"/>
<path d="M5096 3591 c-17 -19 -17 -21 -2 -27 22 -8 28 -1 24 26 l-3 22 -19
-21z"/>
<path d="M1336 3593 c-11 -11 -6 -23 9 -23 8 0 15 4 15 9 0 13 -16 22 -24 14z"/>
<path d="M370 3576 c0 -16 167 -69 175 -56 8 12 -40 36 -90 44 -22 4 -50 10
-62 13 -13 3 -23 2 -23 -1z"/>
<path d="M1796 3541 c-19 -21 -14 -41 10 -41 19 0 28 24 17 45 -8 14 -11 14
-27 -4z"/>
<path d="M3650 3529 c-52 -34 -69 -36 -103 -9 -30 23 -45 25 -71 5 -18 -14
-18 -16 11 -77 17 -35 33 -73 37 -85 4 -13 11 -23 15 -23 33 0 301 106 301
119 0 4 -15 15 -32 25 -18 11 -49 32 -69 48 -20 15 -38 28 -40 27 -2 0 -24
-14 -49 -30z"/>
<path d="M2058 3503 c-19 -43 -77 -134 -114 -177 -19 -22 -34 -47 -34 -55 0
-17 358 -237 368 -227 3 3 -1 25 -8 48 -7 24 -16 111 -19 195 -5 136 -8 154
-26 168 -26 20 -132 75 -145 75 -6 0 -16 -12 -22 -27z"/>
<path d="M4954 3484 l-38 -46 35 -26 c19 -14 49 -41 67 -60 29 -30 37 -33 67
-28 l35 7 0 84 0 84 -57 11 c-32 7 -61 14 -65 16 -3 2 -23 -16 -44 -42z"/>
<path d="M220 3480 c-41 -22 -83 -48 -93 -59 -20 -19 -19 -20 54 -40 41 -12
123 -37 183 -56 60 -19 113 -32 117 -29 4 2 8 42 8 89 l-1 84 -76 25 c-43 15
-86 26 -97 26 -11 0 -54 -18 -95 -40z"/>
<path d="M4002 3488 l-54 -33 6 -45 c3 -25 11 -120 17 -212 11 -141 15 -168
28 -167 45 1 175 27 178 36 2 5 19 33 38 62 19 29 35 57 35 62 0 5 -18 9 -41
9 -51 0 -79 15 -79 42 0 20 3 20 70 14 69 -7 70 -7 80 19 17 46 12 102 -12
129 -20 22 -187 116 -206 116 -4 0 -31 -15 -60 -32z"/>
<path d="M1200 3448 c-47 -28 -133 -79 -191 -114 -58 -35 -116 -67 -129 -72
-21 -8 -17 -12 46 -59 184 -134 284 -189 316 -172 11 6 24 21 30 35 11 23 8
29 -35 68 -40 36 -47 49 -47 80 0 44 30 137 71 219 17 32 29 60 27 62 -2 2
-41 -19 -88 -47z"/>
<path d="M2680 3493 c0 -5 9 -19 20 -33 l20 -25 20 24 c11 12 17 27 14 32 -6
11 -74 12 -74 2z"/>
<path d="M1347 3402 c-15 -48 -28 -91 -27 -95 0 -5 12 -6 28 -3 15 2 57 8 94
11 59 6 67 9 59 23 -12 23 -111 146 -119 149 -4 2 -20 -36 -35 -85z"/>
<path d="M2766 3443 c-14 -21 -26 -43 -26 -49 0 -16 178 -275 233 -338 27 -31
54 -56 60 -56 7 0 33 20 57 45 33 34 42 49 35 59 -19 26 -199 232 -266 304
l-68 73 -25 -38z"/>
<path d="M3362 3473 c-36 -7 -36 -25 -1 -106 l32 -75 39 14 c59 21 59 20 31
87 -39 92 -39 92 -101 80z"/>
<path d="M640 3465 c0 -9 82 -95 91 -95 14 0 11 80 -3 85 -28 8 -88 16 -88 10z"/>
<path d="M1860 3446 c0 -9 5 -16 10 -16 6 0 10 4 10 9 0 6 -4 13 -10 16 -5 3
-10 -1 -10 -9z"/>
<path d="M3171 3380 l-91 -60 27 -55 c15 -30 31 -55 36 -55 16 0 182 52 190
59 9 9 -52 171 -63 171 -5 0 -49 -27 -99 -60z"/>
<path d="M3794 3382 c-75 -40 -277 -208 -271 -226 5 -16 119 -95 137 -96 29 0
240 237 240 269 0 26 -20 91 -28 91 -4 0 -39 -17 -78 -38z"/>
<path d="M4374 3383 c-16 -75 -37 -142 -56 -185 -22 -49 -19 -74 8 -85 40 -15
112 123 119 226 l5 71 -35 0 c-30 0 -35 -4 -41 -27z"/>
<path d="M572 3333 c-12 -37 -19 -69 -17 -72 9 -8 147 17 159 29 8 8 -4 24
-44 60 -30 27 -60 49 -65 50 -6 0 -21 -30 -33 -67z"/>
<path d="M4881 3353 c-15 -33 -3 -43 58 -43 l45 0 -34 35 c-41 42 -53 43 -69
8z"/>
<path d="M0 3231 l0 -120 88 45 c48 25 124 56 170 71 45 14 82 27 82 29 0 14
-274 94 -321 94 -18 0 -19 -8 -19 -119z"/>
<path d="M2736 3308 c21 -36 47 -69 51 -64 7 7 -37 76 -48 76 -6 0 -7 -6 -3
-12z"/>
<path d="M1735 3280 c-34 -5 -124 -13 -200 -19 -234 -19 -235 -19 -235 -48 l0
-26 143 7 c232 11 397 33 397 52 0 15 -22 44 -33 43 -7 -1 -39 -5 -72 -9z"/>
<path d="M3478 3283 c-10 -2 -18 -9 -18 -14 0 -14 16 -11 30 6 7 8 11 14 9 14
-2 -1 -12 -3 -21 -6z"/>
<path d="M3844 3200 l-58 -73 64 -57 65 -58 3 114 c4 158 -2 163 -74 74z"/>
<path d="M4849 3247 c14 -18 112 -67 132 -67 35 0 -54 56 -121 76 -22 6 -23 5
-11 -9z"/>
<path d="M5073 3230 c-40 -24 -42 -51 -7 -79 45 -35 54 -28 54 39 0 33 -3 60
-7 60 -5 0 -23 -9 -40 -20z"/>
<path d="M4743 3184 c-24 -29 -43 -58 -43 -63 0 -7 42 -11 120 -11 75 0 120 4
120 10 0 6 -21 23 -47 38 -25 15 -60 39 -77 53 l-31 26 -42 -53z"/>
<path d="M658 3208 l-47 -10 31 -32 c17 -17 45 -60 61 -96 16 -36 30 -66 31
-67 4 -4 217 74 224 82 8 8 -9 21 -105 82 -79 49 -120 58 -195 41z"/>
<path d="M368 3186 c-32 -12 -62 -26 -67 -31 -6 -7 -3 -42 9 -97 11 -48 27
-131 35 -185 9 -54 22 -103 28 -109 7 -7 39 -21 71 -33 l59 -22 23 28 c13 15
33 47 46 70 l22 42 -41 78 c-22 43 -57 122 -78 176 -20 53 -40 99 -44 101 -3
2 -32 -6 -63 -18z"/>
<path d="M500 3207 c0 -18 63 -216 75 -234 16 -24 42 -25 73 -1 36 30 -10 167
-74 217 -21 17 -74 30 -74 18z"/>
<path d="M2561 3180 c-29 -16 -60 -35 -67 -41 -19 -15 -18 -58 1 -65 13 -6
103 27 240 86 l50 22 -25 13 c-14 8 -52 14 -85 14 -48 1 -71 -5 -114 -29z"/>
<path d="M1810 3165 c-19 -7 -112 -36 -207 -64 -196 -57 -322 -104 -355 -131
-22 -18 -23 -18 -4 -39 27 -29 58 -27 210 16 89 25 152 37 198 37 61 1 69 -2
98 -29 18 -16 38 -43 47 -58 18 -36 36 -24 57 41 21 65 48 221 41 232 -8 13
-42 11 -85 -5z"/>
<path d="M3212 3168 c-7 -7 -12 -43 -12 -94 0 -82 0 -82 33 -102 59 -37 341
-164 373 -169 29 -5 35 -1 52 27 26 42 37 116 21 136 -17 21 -277 176 -319
190 -58 19 -134 26 -148 12z"/>
<path d="M2366 3149 c-30 -24 -31 -28 -12 -54 13 -18 15 -17 35 15 36 59 25
77 -23 39z"/>
<path d="M2765 3128 c-38 -20 -126 -60 -195 -89 -69 -28 -126 -52 -128 -54 -1
-1 3 -15 9 -32 l10 -31 100 -4 c97 -4 102 -5 200 -56 116 -59 121 -59 162 16
39 72 36 116 -13 188 -22 33 -48 68 -57 80 l-18 20 -70 -38z"/>
<path d="M1402 3151 l-64 -6 21 -27 21 -26 73 20 c80 22 113 37 86 38 -9 0
-29 2 -45 4 -16 2 -58 0 -92 -3z"/>
<path d="M118 3052 l-118 -67 0 -57 0 -57 38 -10 c20 -6 81 -24 135 -40 l97
-29 0 35 c0 59 -22 278 -29 285 -3 4 -59 -23 -123 -60z"/>
<path d="M1960 3042 l0 -78 56 -54 56 -55 30 35 c16 19 42 50 56 69 26 33 26
34 7 48 -40 29 -183 113 -194 113 -7 0 -11 -27 -11 -78z"/>
<path d="M3727 3062 c-24 -27 -22 -34 25 -70 81 -62 109 -26 35 46 -42 41 -44
42 -60 24z"/>
<path d="M3126 3016 c-34 -41 -45 -66 -30 -66 4 0 13 8 21 18 17 21 55 92 49
92 -2 0 -20 -20 -40 -44z"/>
<path d="M4838 3053 c-76 -2 -138 -8 -138 -12 0 -12 67 -96 118 -150 l39 -41
79 28 c44 16 103 35 132 42 l52 12 0 64 0 64 -72 -2 c-40 -1 -135 -4 -210 -5z"/>
<path d="M4205 2988 c-16 -29 -50 -88 -78 -130 -27 -43 -47 -82 -45 -87 5 -16
111 -91 137 -98 28 -7 155 32 172 53 8 9 8 33 0 83 -6 38 -11 88 -11 110 0 36
-4 42 -34 56 -19 9 -42 28 -51 41 -27 41 -58 32 -90 -28z"/>
<path d="M983 2987 c-39 -57 -103 -100 -161 -107 -47 -5 -47 -5 -98 -90 -77
-127 -70 -142 111 -226 85 -39 121 -51 130 -44 7 6 38 68 70 138 32 70 76 162
97 206 23 46 36 82 31 87 -5 5 -42 25 -81 44 l-71 34 -28 -42z"/>
<path d="M4516 2989 c-14 -11 -26 -24 -26 -28 0 -4 19 -13 43 -20 23 -7 84
-28 134 -48 51 -20 96 -33 100 -29 9 9 -59 72 -126 116 -52 35 -88 38 -125 9z"/>
<path d="M830 2970 c-52 -16 -54 -18 -30 -27 19 -8 33 -6 63 8 20 11 37 24 37
29 0 12 -3 12 -70 -10z"/>
<path d="M4001 2928 c-148 -29 -131 -10 -131 -150 l0 -122 70 69 c61 61 156
198 148 214 -2 3 -41 -2 -87 -11z"/>
<path d="M2214 2918 c-17 -13 -58 -52 -91 -88 -58 -62 -60 -67 -47 -90 39 -71
-21 -112 -115 -79 -24 9 -39 9 -57 0 l-25 -11 27 -50 c15 -28 32 -55 39 -60 7
-6 39 0 90 15 44 14 88 25 98 25 42 0 100 62 211 223 25 38 46 74 46 81 0 17
-81 56 -117 56 -16 0 -43 -10 -59 -22z"/>
<path d="M2993 2895 c-23 -48 -9 -56 30 -17 27 27 30 34 17 42 -24 15 -29 12
-47 -25z"/>
<path d="M4467 2894 c-9 -9 36 -231 50 -245 5 -5 58 -11 119 -15 l110 -7 27
74 c14 41 23 77 19 80 -4 4 -38 17 -77 29 -38 13 -109 38 -157 55 -48 18 -89
31 -91 29z"/>
<path d="M1856 2848 c-26 -39 -27 -45 -14 -68 12 -22 23 -26 87 -33 40 -4 76
-6 79 -3 6 6 -105 146 -117 146 -4 0 -20 -19 -35 -42z"/>
<path d="M673 2845 c-26 -39 -32 -75 -10 -57 7 6 23 29 35 51 29 52 7 57 -25
6z"/>
<path d="M3160 2870 c0 -6 33 -47 73 -93 109 -124 191 -156 256 -101 47 39 56
62 36 84 -18 20 -304 120 -343 120 -12 0 -22 -5 -22 -10z"/>
<path d="M1521 2849 c-64 -12 -70 -24 -25 -47 22 -11 50 -32 64 -47 24 -25 25
-33 25 -136 l0 -110 25 6 c37 10 47 21 54 63 4 26 18 52 42 77 l37 37 -41 84
-42 84 -47 -1 c-27 -1 -68 -5 -92 -10z"/>
<path d="M3725 2808 c-163 -143 -335 -301 -335 -308 0 -10 67 -50 82 -50 6 0
19 7 29 16 22 20 49 12 49 -16 0 -34 15 -23 76 53 31 39 82 100 111 134 l54
62 -3 81 -3 81 -60 -53z"/>
<path d="M1223 2838 c-21 -29 -46 -99 -37 -107 10 -10 107 -32 113 -26 5 5
-37 103 -54 128 -10 14 -14 15 -22 5z"/>
<path d="M2438 2833 c-8 -10 -59 -103 -113 -207 -95 -186 -97 -191 -93 -248 5
-70 16 -85 49 -67 29 15 39 28 81 99 33 58 208 391 208 397 0 1 -10 3 -22 3
-13 0 -36 9 -53 20 -37 24 -38 24 -57 3z"/>
<path d="M1355 2830 c-3 -5 1 -10 9 -10 9 0 16 5 16 10 0 6 -4 10 -9 10 -6 0
-13 -4 -16 -10z"/>
<path d="M2571 2680 c-44 -83 -81 -161 -81 -173 0 -40 24 -60 86 -73 93 -20
117 -18 146 14 l26 27 -33 140 c-18 77 -36 157 -39 178 -4 20 -11 37 -15 37
-5 0 -45 -68 -90 -150z"/>
<path d="M5080 2820 c-15 -9 -38 -159 -39 -256 l-1 -42 40 10 40 10 0 144 c0
148 -3 158 -40 134z"/>
<path d="M2938 2779 c-32 -55 -91 -63 -140 -19 l-33 31 -3 -30 c-6 -52 17
-142 48 -192 39 -65 41 -120 4 -154 -14 -13 -35 -27 -45 -30 -11 -4 -19 -11
-19 -16 0 -11 1 -11 165 81 66 37 162 89 213 114 51 26 96 54 99 63 8 20 -30
93 -63 124 -20 19 -39 24 -97 27 -39 3 -81 10 -92 18 -18 12 -22 10 -37 -17z"/>
<path d="M0 2636 l0 -164 71 -16 c97 -22 116 -20 158 11 80 60 221 188 218
198 -5 17 -383 135 -434 135 -10 0 -13 -39 -13 -164z"/>
<path d="M4907 2748 c-52 -55 -101 -159 -102 -218 l0 -45 70 3 c38 2 73 6 76
10 4 4 17 65 30 136 23 126 23 128 4 142 -28 20 -34 18 -78 -28z"/>
<path d="M1382 2745 c-18 -40 -17 -549 2 -564 20 -17 32 2 70 115 19 55 41
115 49 134 8 20 18 87 22 153 8 136 1 156 -63 175 -56 17 -67 15 -80 -13z"/>
<path d="M3948 2663 l-54 -58 7 -83 c4 -46 9 -85 11 -88 2 -2 38 9 80 24 72
25 76 28 82 62 13 78 7 115 -25 158 -17 23 -34 42 -38 42 -5 0 -33 -26 -63
-57z"/>
<path d="M502 2605 c-62 -53 -112 -99 -112 -103 0 -4 36 -19 80 -33 l79 -26
56 70 c31 39 55 80 55 93 0 25 -29 94 -40 94 -4 0 -57 -43 -118 -95z"/>
<path d="M1081 2553 c-48 -84 -64 -121 -71 -170 -10 -75 -41 -144 -103 -236
-62 -89 -62 -101 1 -77 26 10 68 26 94 35 36 13 68 38 141 114 52 54 103 118
115 142 15 33 72 248 72 275 0 9 -82 24 -131 24 l-56 0 -62 -107z"/>
<path d="M1740 2600 c-41 -41 1 -131 109 -233 81 -76 137 -100 176 -76 28 17
165 179 165 195 0 14 -104 10 -143 -5 -71 -27 -142 0 -176 68 -11 21 -28 46
-36 55 -22 22 -71 20 -95 -4z"/>
<path d="M4322 2540 c-117 -78 -122 -82 -122 -116 0 -19 6 -37 13 -39 6 -3 77
17 157 43 l145 49 -3 39 c-4 45 -31 98 -53 102 -8 1 -70 -34 -137 -78z"/>
<path d="M4133 2593 c-7 -18 5 -81 18 -88 13 -8 66 25 106 67 l33 33 -76 1
c-55 1 -77 -3 -81 -13z"/>
<path d="M3815 2580 c-17 -19 -17 -22 10 -85 26 -61 54 -101 42 -59 -3 11 -9
52 -13 92 -4 39 -10 72 -14 72 -4 0 -15 -9 -25 -20z"/>
<path d="M3310 2571 c0 -5 5 -13 10 -16 6 -3 10 -2 10 4 0 5 -4 13 -10 16 -5
3 -10 2 -10 -4z"/>
<path d="M3200 2536 c-90 -33 -400 -200 -400 -215 0 -5 5 -22 11 -40 13 -36
18 -37 147 -46 104 -7 175 -28 267 -79 l62 -34 43 81 c55 106 75 127 116 127
18 0 36 5 40 11 9 16 -44 67 -100 96 -27 13 -70 45 -96 69 -26 24 -49 44 -51
43 -2 0 -20 -6 -39 -13z"/>
<path d="M4653 2530 c-37 -17 -43 -23 -43 -50 0 -71 21 -119 73 -165 27 -25
51 -44 53 -43 1 2 -1 50 -6 107 -4 58 -6 120 -3 138 7 40 -8 42 -74 13z"/>
<path d="M3671 2461 c-39 -45 -71 -86 -71 -91 0 -8 124 -166 191 -244 5 -6 19
2 33 17 14 15 32 27 41 27 23 0 21 105 -4 150 -10 19 -41 77 -68 128 l-50 94
-72 -81z"/>
<path d="M661 2479 c-30 -28 -50 -54 -45 -58 10 -10 195 -91 207 -91 13 0 98
123 90 131 -8 8 -180 69 -191 69 -4 -1 -31 -23 -61 -51z"/>
<path d="M5035 2449 c-38 -11 -104 -25 -145 -32 l-75 -13 4 -154 c2 -85 4
-155 5 -156 0 -1 67 10 149 24 l147 25 0 164 c0 90 -3 163 -7 162 -5 -1 -39
-10 -78 -20z"/>
<path d="M1660 2444 c-19 -7 -43 -13 -53 -13 -16 -1 -17 -14 -13 -185 4 -161
7 -189 25 -224 33 -64 29 -74 -41 -109 -78 -39 -238 -185 -238 -216 0 -12 4
-28 9 -36 9 -14 11 -13 303 116 76 34 104 65 124 142 15 60 15 70 -1 142 -19
88 -12 131 30 194 29 42 34 30 -50 139 -27 36 -52 65 -55 64 -3 0 -21 -6 -40
-14z"/>
<path d="M242 2352 l-103 -97 -3 -135 c-3 -142 9 -200 38 -200 34 0 367 195
423 247 49 45 65 100 36 125 -24 22 -264 158 -277 158 -6 0 -57 -44 -114 -98z"/>
<path d="M4490 2405 c-25 -13 -81 -38 -125 -56 -117 -47 -125 -56 -75 -86 35
-20 38 -26 65 -158 l20 -100 50 4 c76 5 93 15 101 58 3 21 18 65 31 98 21 50
24 69 19 120 -8 69 -23 132 -34 139 -4 2 -27 -7 -52 -19z"/>
<path d="M0 2371 l0 -41 46 0 c51 0 84 14 84 35 0 19 -25 32 -82 40 l-48 7 0
-41z"/>
<path d="M3977 2393 c-37 -11 -47 -18 -42 -30 3 -9 11 -47 17 -85 7 -37 15
-68 20 -68 16 0 57 67 63 105 3 22 9 52 11 68 6 31 2 32 -69 10z"/>
<path d="M2142 2346 c-24 -61 -26 -97 -5 -103 21 -7 34 36 31 100 l-3 62 -23
-59z"/>
<path d="M2376 2371 c-17 -19 -17 -19 3 -14 11 3 26 11 32 19 19 23 -15 18
-35 -5z"/>
<path d="M4096 2360 c-2 -14 -7 -45 -11 -70 -4 -29 -17 -58 -40 -86 l-34 -42
39 -26 c22 -14 44 -26 49 -26 13 0 68 65 76 89 9 29 -21 125 -49 158 l-24 28
-6 -25z"/>
<path d="M2452 2315 c-87 -30 -163 -67 -181 -89 -11 -13 -9 -16 16 -21 15 -3
47 -10 69 -15 49 -11 110 4 179 44 47 28 65 51 65 85 0 18 -6 21 -37 21 -21 0
-71 -12 -111 -25z"/>
<path d="M3494 2253 c-20 -32 -41 -63 -46 -70 -11 -14 44 -44 192 -103 104
-42 140 -44 140 -10 0 17 -128 145 -212 212 l-37 29 -37 -58z"/>
<path d="M2687 2275 c-20 -14 -37 -34 -37 -43 0 -10 19 -36 43 -58 108 -103
147 -125 147 -84 0 21 -97 210 -109 210 -3 0 -23 -11 -44 -25z"/>
<path d="M840 2250 c-19 -26 -20 -33 -8 -48 22 -29 32 -32 50 -15 27 24 32 52
12 74 -23 25 -29 24 -54 -11z"/>
<path d="M0 2213 l0 -58 20 25 c22 29 24 43 10 71 -19 34 -30 20 -30 -38z"/>
<path d="M710 2260 c0 -5 7 -10 16 -10 8 0 12 5 9 10 -3 6 -10 10 -16 10 -5 0
-9 -4 -9 -10z"/>
<path d="M1542 2233 c-10 -16 -54 -93 -98 -172 l-79 -143 -77 -39 c-77 -39
-77 -39 -65 -66 31 -72 21 -77 183 87 144 146 149 153 161 208 15 69 17 152 4
152 -5 0 -18 -12 -29 -27z"/>
<path d="M4636 2203 c-39 -62 -63 -131 -49 -142 4 -4 46 -3 93 3 l85 11 -3 50
c-4 57 -18 84 -61 114 l-29 21 -36 -57z"/>
<path d="M1861 2194 c-25 -42 -25 -46 -5 -86 18 -35 34 -34 119 2 l50 22 -25
16 c-13 10 -44 32 -67 50 -24 17 -45 32 -47 32 -2 0 -13 -16 -25 -36z"/>
<path d="M1233 2193 c-24 -9 -13 -23 18 -23 20 0 29 4 27 13 -5 13 -26 18 -45
10z"/>
<path d="M2887 2193 c-9 -8 12 -33 29 -33 7 0 25 5 41 11 26 10 27 12 8 19
-25 11 -69 12 -78 3z"/>
<path d="M712 2156 c-18 -13 -35 -26 -38 -29 -8 -8 36 -137 46 -137 4 0 18 8
30 18 20 16 21 23 14 95 -4 42 -10 77 -13 77 -3 -1 -21 -11 -39 -24z"/>
<path d="M2156 2172 c-3 -6 -1 -14 5 -17 15 -10 25 3 12 16 -7 7 -13 7 -17 1z"/>
<path d="M2575 2144 c-5 -1 -36 -8 -67 -14 -32 -6 -58 -15 -58 -20 0 -15 318
-220 341 -220 5 0 14 18 20 40 15 50 8 59 -116 145 -105 72 -107 73 -120 69z"/>
<path d="M4176 2095 c-82 -95 -81 -137 5 -245 32 -41 74 -104 94 -141 19 -37
46 -74 61 -83 14 -10 69 -26 122 -36 108 -21 130 -15 118 33 -5 20 -20 30 -83
53 -97 34 -119 53 -139 123 -26 91 -33 102 -64 114 -35 13 -39 40 -9 61 18 12
20 21 14 53 -10 56 -42 123 -58 123 -8 0 -36 -25 -61 -55z"/>
<path d="M2234 2106 c-22 -18 -28 -32 -27 -59 2 -63 7 -68 288 -249 99 -64
189 -118 200 -120 21 -3 31 14 70 113 l22 55 -126 77 c-69 42 -171 106 -226
142 -114 74 -154 82 -201 41z"/>
<path d="M2085 2074 c13 -101 37 -219 49 -248 8 -17 44 -71 81 -121 37 -49 73
-99 81 -109 7 -11 16 -17 19 -14 3 3 -28 51 -69 107 -89 122 -101 150 -124
305 -11 78 -22 121 -30 124 -11 3 -12 -6 -7 -44z"/>
<path d="M3010 2110 c-71 -12 -130 -30 -130 -39 0 -11 109 -151 117 -151 17 0
187 107 203 128 24 30 26 58 4 66 -21 8 -138 6 -194 -4z"/>
<path d="M1135 2093 c-25 -7 -65 -33 -65 -43 0 -9 58 -23 160 -40 36 -6 75
-14 87 -17 18 -4 26 3 47 45 14 27 22 52 19 56 -7 7 -219 6 -248 -1z"/>
<path d="M3891 2076 c-5 -13 -14 -49 -20 -80 -6 -31 -30 -94 -55 -141 -53 -99
-84 -191 -70 -204 5 -5 37 -13 72 -17 l62 -7 0 41 c0 62 7 71 89 108 41 19 83
42 92 50 17 15 16 19 -3 62 -15 37 -19 60 -14 104 l6 58 -50 25 c-64 32 -98
33 -109 1z"/>
<path d="M1960 2054 c-153 -84 -154 -98 -22 -334 78 -138 107 -182 141 -207
23 -18 52 -33 64 -33 28 0 127 80 127 102 0 9 -37 60 -82 113 -46 53 -88 110
-95 128 -6 18 -19 85 -29 150 -10 66 -22 117 -28 117 -6 0 -40 -16 -76 -36z"/>
<path d="M3240 2061 c-15 -36 -41 -61 -121 -114 -79 -53 -85 -63 -66 -110 14
-33 28 -43 121 -88 91 -43 114 -59 163 -115 32 -35 67 -67 78 -71 21 -7 89 -5
118 3 20 6 23 48 7 106 -6 21 -19 95 -28 165 l-18 128 -114 62 c-63 34 -118
62 -121 62 -4 1 -12 -12 -19 -28z"/>
<path d="M3400 2071 c43 -22 94 -36 86 -22 -6 10 -92 41 -110 41 -6 -1 5 -9
24 -19z"/>
<path d="M5048 2064 c-27 -8 -48 -18 -48 -23 0 -7 21 -73 25 -78 1 -2 23 4 48
13 46 16 47 16 47 60 0 49 -1 50 -72 28z"/>
<path d="M533 2005 c-33 -39 -54 -55 -68 -53 -14 2 -91 -49 -222 -145 l-202
-147 6 -48 c5 -42 2 -52 -21 -79 -25 -30 -27 -38 -24 -112 l3 -81 56 37 c30
20 67 52 81 72 15 20 66 79 113 131 48 52 97 116 110 141 32 62 84 105 205
168 l101 53 -17 26 c-10 15 -27 42 -38 59 -12 18 -24 33 -28 33 -4 0 -28 -25
-55 -55z"/>
<path d="M4855 2004 c-190 -33 -225 -44 -225 -67 0 -33 13 -46 68 -72 l51 -24
91 25 c127 33 132 37 124 82 -9 54 -14 72 -22 71 -4 -1 -43 -7 -87 -15z"/>
<path d="M0 1933 l0 -68 26 26 26 26 -21 42 c-12 22 -24 41 -26 41 -3 0 -5
-30 -5 -67z"/>
<path d="M940 1985 c0 -8 50 -105 67 -131 l14 -22 92 30 c131 42 186 67 167
77 -43 24 -340 63 -340 46z"/>
<path d="M3555 1972 c32 -31 187 -142 194 -138 9 6 45 96 40 100 -4 2 -158 34
-214 43 -20 4 -27 2 -20 -5z"/>
<path d="M4475 1931 l-60 -6 1 -35 c1 -19 7 -54 13 -78 12 -42 15 -45 113 -92
138 -68 141 -65 73 90 -45 102 -62 132 -74 128 -3 -1 -33 -4 -66 -7z"/>
<path d="M860 1908 c0 -32 22 -88 35 -88 26 0 27 21 1 61 -28 41 -36 47 -36
27z"/>
<path d="M782 1893 c-11 -10 -25 -40 -30 -66 l-10 -49 26 7 c15 4 30 12 34 18
8 12 11 107 4 107 -2 0 -13 -8 -24 -17z"/>
<path d="M2872 1898 c3 -7 15 -15 28 -16 21 -3 22 -2 11 12 -16 19 -44 21 -39
4z"/>
<path d="M5029 1853 c-46 -31 -100 -69 -120 -85 l-37 -28 18 -57 c11 -37 23
-58 32 -57 8 1 56 32 106 70 l92 69 0 72 c0 40 -2 73 -4 73 -2 0 -41 -25 -87
-57z"/>
<path d="M3590 1863 c1 -107 50 -283 79 -283 15 0 26 22 23 50 -2 14 8 57 22
96 l24 72 -68 51 c-38 28 -71 51 -74 51 -4 0 -6 -17 -6 -37z"/>
<path d="M2230 1866 c0 -4 12 -30 26 -59 18 -35 74 -100 173 -199 141 -143
148 -148 187 -148 92 0 85 65 -17 174 -59 63 -92 88 -204 151 -140 79 -165 91
-165 81z"/>
<path d="M593 1804 c-57 -31 -103 -61 -103 -65 0 -15 41 -10 118 13 54 15 76
27 82 42 17 47 21 66 13 66 -4 0 -54 -25 -110 -56z"/>
<path d="M61 1773 c-7 -21 -15 -44 -17 -50 -10 -22 15 -14 48 16 27 25 31 33
22 48 -20 32 -40 26 -53 -14z"/>
<path d="M2828 1757 c-16 -29 -28 -57 -28 -63 0 -10 278 -90 285 -82 2 2 6 26
10 54 5 37 3 53 -7 61 -12 9 -212 83 -226 83 -4 0 -19 -24 -34 -53z"/>
<path d="M995 1756 l-130 -31 -3 -31 c-4 -41 1 -42 206 -50 187 -8 180 -12
136 87 -32 71 -25 70 -209 25z"/>
<path d="M1705 1751 c-158 -67 -235 -109 -235 -131 0 -10 3 -21 8 -23 7 -5
294 151 314 171 24 24 0 19 -87 -17z"/>
<path d="M4078 1737 c-61 -43 -70 -63 -40 -90 15 -14 24 -13 95 5 42 12 77 26
77 33 0 17 -53 95 -65 94 -5 0 -36 -19 -67 -42z"/>
<path d="M765 1708 c-49 -18 -55 -27 -55 -90 0 -54 20 -128 35 -128 4 0 27 14
51 31 33 23 44 35 39 47 -4 10 -12 47 -18 85 -6 37 -13 67 -16 66 -3 0 -19 -5
-36 -11z"/>
<path d="M420 1695 c0 -8 5 -15 10 -15 6 0 10 7 10 15 0 8 -4 15 -10 15 -5 0
-10 -7 -10 -15z"/>
<path d="M4751 1659 c-40 -28 -75 -57 -78 -65 -5 -15 46 -116 62 -121 6 -2 36
18 69 43 l58 46 -6 60 c-8 65 -14 88 -25 88 -4 0 -40 -23 -80 -51z"/>
<path d="M5040 1649 c-229 -184 -280 -229 -280 -252 0 -32 27 -67 53 -67 14 0
78 45 165 116 l142 117 0 73 c0 41 -1 74 -2 73 -2 0 -37 -27 -78 -60z"/>
<path d="M3146 1684 c-18 -46 5 -64 80 -64 30 0 30 11 2 38 -35 32 -75 44 -82
26z"/>
<path d="M1695 1606 c-170 -83 -195 -101 -234 -166 -24 -40 -28 -98 -7 -106 7
-3 82 30 166 72 145 73 157 77 243 85 50 5 95 13 100 18 18 18 -59 181 -85
181 -7 0 -89 -38 -183 -84z"/>
<path d="M561 1657 l-53 -20 5 -56 c9 -82 71 -201 117 -222 98 -46 104 -35 60
106 -17 57 -35 128 -39 157 -7 62 -14 65 -90 35z"/>
<path d="M860 1614 c0 -13 6 -27 14 -30 22 -9 206 -30 211 -25 12 11 3 40 -12
45 -10 3 -52 8 -93 12 -41 4 -85 11 -97 15 -20 7 -23 5 -23 -17z"/>
<path d="M445 1604 c-19 -14 -19 -15 3 -36 27 -27 36 -20 25 20 -7 28 -9 29
-28 16z"/>
<path d="M1355 1593 c-11 -3 -24 -9 -29 -13 -8 -8 51 -140 63 -140 8 0 51 67
51 80 0 5 -8 25 -17 45 -16 34 -26 38 -68 28z"/>
<path d="M2748 1589 c-10 -5 -18 -17 -18 -25 0 -20 48 -114 59 -114 4 0 15 19
24 43 24 66 28 85 20 90 -20 12 -70 16 -85 6z"/>
<path d="M4070 1597 c0 -12 33 -97 38 -97 21 0 151 57 149 65 -5 15 -76 33
-134 34 -29 1 -53 0 -53 -2z"/>
<path d="M2886 1514 c-31 -88 -70 -162 -127 -243 -22 -30 -37 -56 -35 -58 2
-3 30 0 62 6 32 6 91 11 131 11 80 0 80 1 63 60 -6 19 -17 80 -24 135 -8 55
-20 116 -28 134 l-14 35 -28 -80z"/>
<path d="M3966 1580 c-11 -28 -23 -141 -16 -145 4 -2 19 9 35 25 23 24 26 34
21 63 -8 44 -32 78 -40 57z"/>
<path d="M2348 1521 c-31 -20 -81 -51 -112 -70 l-56 -35 18 -26 c35 -52 175
-230 182 -230 11 0 50 62 108 170 l52 96 -68 66 -67 66 -57 -37z"/>
<path d="M3067 1538 c-58 -25 -66 -50 -44 -134 20 -78 76 -204 91 -204 6 0 36
15 66 33 45 28 55 38 53 60 -2 29 -102 267 -112 266 -3 0 -27 -10 -54 -21z"/>
<path d="M3220 1542 c0 -36 56 -172 129 -316 39 -76 73 -141 75 -144 7 -6 146
50 146 59 0 12 -103 99 -187 156 -79 55 -96 72 -106 112 -9 36 9 68 49 89 l36
18 -26 17 c-14 10 -46 20 -71 24 -41 5 -45 4 -45 -15z"/>
<path d="M278 1517 c-21 -12 -36 -27 -33 -34 7 -20 158 -213 166 -213 18 0 18
23 -1 97 -10 43 -22 90 -25 106 -6 30 -38 67 -57 67 -7 -1 -30 -11 -50 -23z"/>
<path d="M4520 1534 c-71 -13 -263 -57 -322 -75 -45 -13 -68 -25 -68 -35 0
-14 160 -312 183 -342 11 -14 15 -12 211 117 l129 84 -7 78 c-8 99 -14 130
-30 151 -14 19 -56 29 -96 22z"/>
<path d="M907 1506 c-68 -28 -127 -71 -127 -92 0 -8 9 -33 20 -54 23 -45 18
-45 131 10 43 21 47 26 53 69 3 25 8 56 12 69 8 29 -13 29 -89 -2z"/>
<path d="M1220 1511 c0 -10 9 -30 21 -45 23 -29 109 -92 109 -79 0 12 -70 116
-88 131 -23 18 -42 15 -42 -7z"/>
<path d="M3663 1517 c-100 -9 -113 -12 -113 -28 0 -11 17 -29 40 -44 61 -38
209 -110 215 -104 5 6 54 168 55 182 0 8 -47 7 -197 -6z"/>
<path d="M465 1473 c9 -37 37 -85 53 -91 17 -5 15 12 -9 69 -24 54 -56 70 -44
22z"/>
<path d="M1064 1477 c-23 -20 -27 -33 -31 -93 -6 -79 12 -128 63 -174 l27 -25
-7 25 c-4 14 -9 55 -13 92 -5 56 -2 73 16 108 20 39 21 44 6 66 -19 30 -27 30
-61 1z"/>
<path d="M5047 1410 c-63 -68 -137 -178 -137 -204 0 -8 7 -19 15 -26 12 -10
20 -9 40 4 46 30 53 23 53 -59 0 -86 26 -152 73 -186 l29 -20 0 280 c0 155 -2
281 -4 281 -2 0 -33 -31 -69 -70z"/>
<path d="M3348 1459 c-32 -12 -43 -40 -28 -69 6 -12 64 -56 128 -98 64 -42
156 -104 203 -139 48 -35 91 -63 97 -63 11 0 62 142 62 171 0 11 -65 44 -207
108 -115 51 -212 95 -218 96 -5 2 -22 -1 -37 -6z"/>
<path d="M98 1368 l-98 -81 0 -166 0 -167 30 -29 c35 -34 22 -41 183 102 143
128 164 154 147 191 -24 54 -143 232 -154 231 -6 0 -55 -37 -108 -81z"/>
<path d="M1928 1440 c-43 -13 -178 -83 -178 -92 0 -14 59 -9 115 11 64 23 115
57 115 77 0 15 -11 16 -52 4z"/>
<path d="M2047 1399 c-20 -11 -37 -25 -37 -31 0 -6 26 -43 58 -82 77 -94 110
-143 167 -251 26 -49 66 -118 88 -152 36 -57 43 -63 73 -63 l34 0 0 83 0 83
-61 95 c-101 154 -201 278 -258 319 -25 17 -27 17 -64 -1z"/>
<path d="M2666 1401 c-10 -15 41 -54 61 -47 16 7 15 10 -10 32 -30 25 -43 29
-51 15z"/>
<path d="M1621 1360 c-85 -61 -94 -86 -28 -77 84 12 97 21 97 72 0 25 -3 45
-7 45 -5 0 -32 -18 -62 -40z"/>
<path d="M3995 1377 c-22 -7 -45 -15 -51 -19 -27 -18 -146 -380 -130 -395 3
-4 52 38 109 93 56 55 126 121 156 146 l54 47 -36 68 c-19 37 -42 69 -49 70
-7 1 -31 -4 -53 -10z"/>
<path d="M1198 1363 c-27 -8 -48 -20 -48 -27 0 -45 146 -484 169 -509 4 -4 43
13 87 37 136 77 133 46 29 257 -89 181 -142 260 -174 258 -9 -1 -37 -8 -63
-16z"/>
<path d="M916 1322 c-54 -29 -61 -39 -46 -62 8 -12 17 -11 65 13 45 22 55 31
55 52 0 32 -13 31 -74 -3z"/>
<path d="M1919 1324 c-23 -12 -54 -21 -174 -49 l-30 -7 25 -8 c14 -4 87 -27
163 -51 117 -36 140 -41 147 -29 6 8 10 20 10 25 0 14 -92 128 -105 131 -5 1
-22 -4 -36 -12z"/>
<path d="M2598 1307 c-22 -17 -156 -176 -170 -202 -11 -19 -10 -19 13 -2 13 9
68 44 121 78 54 34 105 71 115 81 17 19 16 20 -7 39 -29 22 -48 23 -72 6z"/>
<path d="M527 1283 c-4 -3 -7 -35 -7 -70 l0 -64 82 63 81 63 -49 7 c-67 9 -99
9 -107 1z"/>
<path d="M927 1230 c-59 -37 -60 -34 65 -157 83 -82 102 -107 157 -213 35 -66
70 -125 77 -131 10 -9 20 -4 44 19 16 17 30 38 30 48 0 9 -27 73 -61 142 -55
113 -69 133 -156 223 -53 54 -99 99 -103 99 -3 0 -27 -14 -53 -30z"/>
<path d="M4737 1230 c-9 -36 3 -60 32 -59 14 0 34 3 43 7 15 6 15 11 3 40 -11
26 -20 32 -43 32 -21 0 -31 -6 -35 -20z"/>
<path d="M3200 1203 c-30 -19 -61 -38 -69 -42 -11 -7 -1 -33 48 -127 34 -66
69 -128 77 -139 15 -20 16 -20 39 9 13 16 31 47 41 68 17 38 17 40 -6 96 -13
31 -35 82 -49 113 l-26 55 -55 -33z"/>
<path d="M678 1190 c-42 -22 -79 -44 -83 -49 -8 -14 52 -131 68 -131 9 0 132
76 156 97 6 4 -51 123 -58 123 -3 -1 -41 -19 -83 -40z"/>
<path d="M4597 1193 l-38 -27 26 -13 c14 -8 36 -13 48 -11 18 2 22 10 22 37 0
44 -11 46 -58 14z"/>
<path d="M440 1175 c-16 -25 -19 -40 -12 -47 16 -16 31 -1 38 38 9 48 0 51
-26 9z"/>
<path d="M1570 1203 c-64 -7 -65 -10 -18 -64 23 -29 78 -95 121 -148 66 -80
326 -356 315 -333 -101 209 -167 332 -206 379 -26 32 -67 84 -91 116 -31 41
-50 57 -65 55 -11 0 -37 -3 -56 -5z"/>
<path d="M1750 1173 c0 -9 34 -48 76 -87 42 -39 90 -95 106 -124 30 -51 31
-52 67 -46 20 4 37 8 39 9 2 2 -25 163 -33 191 -3 11 -205 74 -237 74 -10 0
-18 -7 -18 -17z"/>
<path d="M4045 1091 c-66 -54 -130 -110 -143 -124 l-23 -25 33 -25 c49 -36 78
-40 124 -16 69 36 224 141 224 152 0 20 -71 137 -83 137 -7 0 -66 -45 -132
-99z"/>
<path d="M2562 1105 c-64 -73 -86 -196 -47 -263 27 -45 42 -47 99 -11 86 52
266 181 307 219 35 32 37 37 25 54 -17 21 -29 22 -161 12 -93 -7 -102 -6 -127
13 -38 30 -51 27 -96 -24z"/>
<path d="M4490 1116 l-23 -25 24 -6 c71 -17 129 -22 129 -10 0 7 -13 18 -30
25 -16 7 -35 18 -41 26 -17 20 -32 17 -59 -10z"/>
<path d="M522 1090 c2 -24 8 -36 21 -38 23 -5 22 20 -3 49 l-20 24 2 -35z"/>
<path d="M2130 1099 c0 -9 9 -24 20 -34 26 -23 26 -8 0 25 -14 18 -20 21 -20
9z"/>
<path d="M3033 1103 c-20 -8 -16 -36 18 -120 18 -47 45 -94 68 -118 21 -22 54
-62 74 -90 19 -27 52 -66 73 -85 36 -34 37 -34 17 -5 -11 17 -48 94 -82 172
-95 216 -128 263 -168 246z"/>
<path d="M4777 1086 c-37 -7 -70 -16 -74 -20 -8 -8 -21 -207 -22 -348 -1 -68
3 -98 11 -98 13 0 164 80 296 157 l94 55 -34 31 c-38 35 -81 104 -115 182 -19
45 -24 50 -55 52 -18 0 -63 -4 -101 -11z"/>
<path d="M782 1038 c-65 -45 -72 -55 -46 -65 18 -7 182 26 189 38 5 7 -63 69
-75 69 -3 0 -34 -19 -68 -42z"/>
<path d="M2084 1065 c-7 -18 9 -83 32 -127 12 -23 21 -28 54 -28 21 0 42 5 45
10 6 10 -76 122 -110 150 -12 10 -16 9 -21 -5z"/>
<path d="M4400 1055 c-19 -20 -21 -27 -10 -40 18 -21 27 -19 34 9 3 13 9 31
12 40 9 24 -9 19 -36 -9z"/>
<path d="M3595 990 c-20 -40 -33 -75 -30 -78 4 -4 42 -9 86 -11 86 -3 86 -3
81 61 -2 16 -71 88 -93 96 -4 2 -24 -29 -44 -68z"/>
<path d="M3492 1030 c-32 -20 -72 -74 -72 -97 0 -8 14 -13 38 -13 35 0 39 3
70 59 17 32 32 61 32 65 0 13 -36 5 -68 -14z"/>
<path d="M283 954 c-134 -97 -164 -124 -158 -134 3 -5 31 -11 63 -15 l59 -7
101 72 c56 40 102 73 102 75 0 7 -41 95 -45 95 -2 0 -57 -39 -122 -86z"/>
<path d="M505 988 c11 -58 67 -253 74 -260 11 -12 115 23 141 48 l25 24 -112
110 c-61 61 -116 110 -123 110 -8 0 -9 -11 -5 -32z"/>
<path d="M4537 1003 c-2 -5 -5 -62 -6 -128 -1 -66 -5 -158 -10 -205 -4 -47 -5
-88 -2 -92 5 -6 78 5 86 14 2 2 9 68 15 147 11 131 9 216 -6 256 -6 16 -69 22
-77 8z"/>
<path d="M2840 919 c-63 -44 -147 -98 -187 -120 -39 -22 -73 -45 -75 -52 -8
-23 4 -127 14 -127 30 0 378 334 378 362 0 10 -3 18 -7 18 -5 -1 -60 -37 -123
-81z"/>
<path d="M4227 911 c-66 -78 -76 -94 -67 -111 14 -27 32 -35 129 -60 l82 -21
35 22 c56 34 58 48 14 115 -21 32 -55 79 -77 103 l-38 43 -78 -91z"/>
<path d="M680 965 c7 -8 17 -15 22 -15 6 0 5 7 -2 15 -7 8 -17 15 -22 15 -6 0
-5 -7 2 -15z"/>
<path d="M830 940 c0 -5 8 -13 18 -18 20 -11 66 3 57 18 -8 13 -75 13 -75 0z"/>
<path d="M999 913 c5 -18 3 -38 -6 -56 l-14 -28 56 -25 c89 -41 95 -30 30 56
-62 83 -78 96 -66 53z"/>
<path d="M392 849 c-45 -33 -82 -64 -82 -69 0 -9 17 -14 130 -40 46 -10 86
-17 89 -15 4 5 -36 151 -48 172 -4 8 -33 -8 -89 -48z"/>
<path d="M2834 751 c-289 -254 -271 -236 -255 -255 18 -21 31 -20 62 7 198
168 340 291 367 320 29 30 32 38 23 56 -7 12 -15 21 -20 21 -4 0 -84 -67 -177
-149z"/>
<path d="M840 876 c0 -2 8 -10 18 -17 15 -13 16 -12 3 4 -13 16 -21 21 -21 13z"/>
<path d="M3311 843 c-17 -21 -31 -44 -31 -51 0 -22 26 -65 58 -95 l29 -28 58
84 c31 47 55 89 51 95 -3 5 -27 12 -53 14 -27 3 -55 9 -64 12 -12 5 -26 -4
-48 -31z"/>
<path d="M3801 851 c-22 -51 -8 -68 75 -93 70 -20 78 -25 139 -94 47 -51 78
-77 110 -90 l45 -17 35 27 c68 53 69 99 1 116 -79 19 -91 26 -104 55 -25 56
-29 60 -60 57 -18 -2 -62 10 -104 27 -114 47 -123 48 -137 12z"/>
<path d="M1485 839 c-19 -17 -35 -37 -35 -44 0 -24 113 -247 128 -252 24 -10
87 11 85 27 -3 26 -126 300 -134 300 -5 0 -24 -14 -44 -31z"/>
<path d="M1677 853 c-13 -13 -6 -42 28 -117 33 -73 75 -210 75 -246 0 -9 7
-40 15 -69 12 -39 32 -68 80 -120 50 -52 70 -83 89 -137 40 -108 76 -121 131
-47 37 52 75 150 75 195 0 62 -31 102 -252 325 -122 123 -225 223 -228 223 -4
0 -10 -3 -13 -7z"/>
<path d="M2115 851 c-78 -6 -80 -7 -83 -34 -2 -19 27 -90 94 -229 86 -176 99
-209 102 -264 5 -77 -16 -145 -65 -210 -34 -45 -35 -48 -18 -60 36 -26 63 -15
143 58 30 26 93 75 142 108 48 34 91 68 94 76 4 9 -8 33 -29 58 -19 23 -57 91
-85 149 -27 59 -73 155 -100 214 -55 116 -74 144 -99 141 -9 -1 -52 -4 -96 -7z"/>
<path d="M3588 823 c-15 -18 -58 -97 -58 -108 0 -8 154 -6 167 3 14 9 35 101
27 114 -3 5 -31 8 -63 8 -43 0 -62 -5 -73 -17z"/>
<path d="M885 813 l-29 -16 49 -43 c77 -68 99 -54 48 30 -16 25 -30 45 -33 45
-3 0 -18 -7 -35 -16z"/>
<path d="M12 768 c-7 -7 -12 -40 -12 -83 0 -66 2 -73 30 -100 26 -25 33 -27
55 -17 30 14 31 30 4 76 -11 19 -24 57 -27 83 -7 49 -26 65 -50 41z"/>
<path d="M2416 758 l-27 -23 37 -105 c20 -58 38 -107 40 -109 8 -9 33 35 34
56 0 24 -37 169 -50 191 -5 11 -13 9 -34 -10z"/>
<path d="M5104 772 c-6 -4 -14 -17 -18 -28 -4 -12 -43 -46 -87 -75 -44 -28
-84 -60 -90 -70 -12 -24 -2 -63 22 -85 17 -16 21 -15 71 10 29 14 68 38 86 54
l33 27 -3 87 c-2 61 -6 85 -14 80z"/>
<path d="M3014 731 c-134 -71 -175 -107 -144 -126 6 -3 10 -40 10 -81 0 -57 3
-74 14 -74 15 0 99 92 180 197 38 49 47 68 42 87 -9 37 -27 37 -102 -3z"/>
<path d="M180 722 l0 -28 149 -23 c83 -13 156 -21 163 -19 14 5 -268 98 -296
98 -11 0 -16 -9 -16 -28z"/>
<path d="M767 720 c-21 -15 -69 -44 -107 -65 -39 -20 -70 -39 -70 -43 0 -4 33
-18 73 -32 l72 -25 40 -79 c22 -44 45 -81 52 -83 6 -3 51 34 99 81 l87 85 -93
88 c-51 48 -98 91 -104 95 -6 3 -28 -6 -49 -22z"/>
<path d="M1041 684 c-15 -20 -18 -31 -11 -45 15 -27 27 -31 49 -17 15 9 26 9
44 1 29 -14 37 -8 37 24 0 59 -82 85 -119 37z"/>
<path d="M1355 700 c-3 -5 -1 -35 4 -67 6 -31 11 -74 11 -94 0 -21 4 -40 9
-43 8 -5 121 13 130 20 5 4 -59 103 -101 157 -31 38 -42 44 -53 27z"/>
<path d="M3799 688 c-13 -23 -119 -337 -119 -350 0 -7 71 29 152 77 26 15 37
205 15 258 -18 42 -31 47 -48 15z"/>
<path d="M1245 667 c-9 -8 -16 -21 -14 -31 4 -16 7 -15 27 7 25 27 16 44 -13
24z"/>
<path d="M3928 650 c12 -12 22 -26 22 -33 0 -21 17 -40 29 -33 12 8 -45 86
-63 86 -5 0 0 -9 12 -20z"/>
<path d="M4327 614 c-37 -30 -67 -60 -67 -65 0 -13 145 14 166 32 15 13 2 83
-16 87 -8 1 -45 -23 -83 -54z"/>
<path d="M3111 579 c-100 -125 -193 -221 -228 -235 -48 -21 -122 -17 -167 7
l-39 21 -34 -39 c-18 -21 -40 -50 -48 -64 -13 -25 -12 -30 15 -71 55 -83 71
-92 162 -95 45 -1 101 -9 128 -19 46 -17 49 -17 81 4 19 12 82 70 141 129
l106 108 56 143 c31 79 56 145 56 148 0 7 -40 4 -40 -3 0 -5 -4 -14 -9 -21
-11 -18 -64 8 -87 43 -9 14 -19 25 -23 25 -3 -1 -35 -37 -70 -81z"/>
<path d="M3465 626 c-19 -25 -165 -364 -165 -383 0 -9 204 -104 214 -100 13 5
98 173 123 242 7 22 25 85 39 140 14 55 28 108 30 118 5 15 -5 17 -105 17
l-110 0 -26 -34z"/>
<path d="M229 560 c-9 -5 -28 -27 -43 -48 -20 -30 -25 -46 -20 -66 8 -32 101
-133 268 -290 121 -113 128 -118 151 -106 16 9 26 25 30 51 4 22 11 41 16 45
5 3 9 21 9 40 0 32 -13 49 -111 152 -209 219 -251 251 -300 222z"/>
<path d="M1208 522 c-39 -44 -227 -316 -321 -464 l-37 -58 95 0 95 0 85 114
c47 62 106 149 130 192 42 73 45 83 45 152 0 76 -11 112 -34 112 -8 0 -34 -22
-58 -48z"/>
<path d="M3981 556 c-9 -11 -9 -23 3 -51 16 -38 22 -38 71 -1 20 15 20 16 -10
40 -35 29 -48 32 -64 12z"/>
<path d="M4694 511 c-129 -72 -140 -79 -134 -84 10 -9 320 31 320 41 0 13 -66
101 -75 101 -5 -1 -55 -26 -111 -58z"/>
<path d="M4575 526 c-52 -24 -82 -50 -67 -60 5 -3 33 11 63 31 65 44 63 42 58
48 -3 2 -27 -6 -54 -19z"/>
<path d="M5040 477 c-30 -29 -73 -67 -95 -85 l-40 -33 30 -25 c33 -27 105 -33
123 -11 13 16 44 162 40 187 -2 16 -13 10 -58 -33z"/>
<path d="M420 508 c0 -19 170 -178 194 -182 115 -22 136 -23 152 -5 15 17 14
24 -19 93 -40 84 -32 80 -172 96 -119 13 -155 13 -155 -2z"/>
<path d="M4062 465 l-51 -24 49 -103 c27 -56 53 -104 58 -106 5 -1 24 9 42 24
29 25 32 32 27 68 -6 54 -44 153 -61 159 -7 3 -36 -5 -64 -18z"/>
<path d="M4308 483 c-56 -3 -68 -7 -68 -21 0 -9 9 -80 21 -157 l22 -140 48
-47 c66 -64 117 -62 143 5 13 33 7 247 -9 330 -8 42 9 38 -157 30z"/>
<path d="M26 461 c-16 -18 -16 -21 4 -60 20 -41 21 -41 45 -25 31 20 31 29 3
71 -27 38 -29 39 -52 14z"/>
<path d="M1620 466 c-14 -8 -74 -33 -133 -56 -59 -24 -112 -51 -117 -60 -7
-12 0 -30 24 -66 18 -27 61 -102 95 -166 l62 -118 68 0 68 0 33 47 33 46 -22
106 c-12 58 -30 145 -39 194 -18 93 -24 99 -72 73z"/>
<path d="M2506 472 c-5 -9 24 -82 33 -82 4 0 17 10 29 23 l21 22 -39 22 c-22
12 -42 18 -44 15z"/>
<path d="M2740 461 c0 -5 8 -19 18 -31 17 -21 19 -21 32 -5 12 15 12 19 -5 31
-21 16 -45 18 -45 5z"/>
<path d="M968 409 c-25 -14 -22 -24 8 -38 33 -15 37 -11 25 23 -12 30 -10 29
-33 15z"/>
<path d="M3950 398 c0 -5 16 -38 35 -76 19 -37 37 -86 41 -110 4 -23 10 -42
15 -42 19 0 8 65 -21 124 -30 60 -69 118 -70 104z"/>
<path d="M3766 297 c-131 -90 -148 -107 -129 -134 7 -10 24 -37 38 -60 25 -40
25 -43 10 -72 l-16 -31 105 0 c74 0 105 4 109 13 2 6 26 40 52 75 45 60 47 66
41 110 -7 51 -34 113 -68 154 l-23 28 -119 -83z"/>
<path d="M877 359 c-14 -8 -17 -18 -12 -40 4 -15 1 -44 -6 -63 -11 -30 -10
-38 10 -70 13 -20 26 -36 30 -36 10 0 101 132 101 146 0 6 -10 16 -22 22 -13
6 -36 20 -53 31 -23 15 -34 17 -48 10z"/>
<path d="M4725 355 c-5 -2 -31 -6 -57 -10 l-48 -6 15 -37 c9 -20 18 -38 20
-40 5 -5 97 76 103 90 4 8 -14 9 -33 3z"/>
<path d="M104 268 l-61 -71 43 -69 c24 -39 46 -83 49 -99 l7 -29 189 0 c104 0
189 4 189 9 0 14 -330 331 -343 330 -7 0 -40 -32 -73 -71z"/>
<path d="M4810 283 c-63 -49 -174 -145 -248 -215 l-72 -68 155 0 156 0 95 92
95 92 -63 63 c-34 35 -67 63 -73 63 -5 0 -26 -12 -45 -27z"/>
<path d="M4540 250 c0 -35 4 -50 13 -50 16 0 47 31 47 47 0 11 -42 53 -53 53
-4 0 -7 -22 -7 -50z"/>
<path d="M1814 235 c-9 -23 87 -147 103 -132 6 7 -33 113 -50 135 -13 17 -46
15 -53 -3z"/>
<path d="M1241 173 c-52 -56 -74 -93 -56 -93 15 0 172 79 183 92 10 13 6 19
-27 41 l-40 26 -60 -66z"/>
<path d="M3161 180 c-57 -47 -99 -96 -90 -104 2 -2 32 -18 66 -35 l62 -31 21
58 c24 63 32 153 14 159 -7 2 -39 -19 -73 -47z"/>
<path d="M712 203 c-11 -10 -23 -37 -26 -60 -5 -38 -3 -44 19 -59 29 -19 72
-12 92 14 20 28 16 76 -10 100 -28 27 -48 28 -75 5z"/>
<path d="M5105 198 c-4 -10 -4 -26 0 -35 8 -17 8 -17 12 0 3 9 3 25 0 35 -4
16 -4 16 -12 0z"/>
<path d="M2530 180 c0 -19 43 -95 47 -83 2 6 -5 30 -17 52 -20 41 -30 50 -30
31z"/>
<path d="M4108 161 c-9 -10 -24 -24 -34 -29 -11 -6 -17 -12 -14 -14 39 -29 93
-57 100 -53 6 3 10 31 10 61 0 50 -2 54 -23 54 -12 0 -30 -9 -39 -19z"/>
<path d="M4928 83 l-87 -78 59 -3 c33 -2 88 -2 123 0 l63 3 -36 78 -35 78 -87
-78z"/>
<path d="M2375 77 l-90 -72 109 -3 c97 -2 112 0 129 16 18 19 18 20 -13 76
-18 31 -35 56 -38 56 -4 0 -47 -33 -97 -73z"/>
<path d="M3305 73 l-45 -68 122 -3 c176 -4 184 3 79 71 -117 77 -104 77 -156
0z"/>
<path d="M0 106 c0 -15 9 -45 20 -66 17 -34 25 -40 51 -40 l31 0 -29 52 c-16
28 -39 58 -51 66 -21 14 -22 13 -22 -12z"/>
<path d="M1286 67 l-99 -62 143 -3 c79 -1 145 0 148 2 8 9 -63 121 -78 123 -8
2 -60 -25 -114 -60z"/>
<path d="M3595 100 c3 -5 8 -10 11 -10 2 0 4 5 4 10 0 6 -5 10 -11 10 -5 0 -7
-4 -4 -10z"/>
<path d="M4257 96 c-4 -10 -1 -19 9 -23 21 -8 26 1 11 22 -13 16 -14 16 -20 1z"/>
<path d="M1775 30 l-29 -30 75 0 74 1 -35 29 c-19 16 -40 30 -46 30 -5 0 -23
-13 -39 -30z"/>
<path d="M2595 30 c-27 -28 -28 -30 -7 -30 11 0 28 10 36 22 33 46 13 52 -29
8z"/>
<path d="M4005 30 l-29 -30 57 0 c60 0 68 7 40 32 -33 28 -40 27 -68 -2z"/>
<path d="M1972 28 c-19 -19 -14 -28 13 -28 27 0 32 12 12 29 -10 8 -17 7 -25
-1z"/>
<path d="M4293 20 c-33 -13 -28 -20 13 -20 23 0 34 4 32 12 -6 16 -19 18 -45
8z"/>
<path d="M2715 10 c-4 -6 19 -10 62 -9 47 0 62 3 48 9 -28 12 -103 12 -110 0z"/>
</g>
</svg>